# xmcd
#
# Track frame offsets:
#	150
#	21925
#	36524
#	54600
#	70615
#	85852
#	99448
#	112455
#	129800
#	141987
#	158253
#	173747
#	187795
#	204617
#	225578
#	238870
#
# Disc length: 3384 seconds
#
# Revision: 2
# Processed by: cddbd v1.5.2PL0 Copyright (c) Steve Scherf et al.
# Submitted via: audiograbber 1.83.01
#
DISCID=d30d3610
DTITLE=Various Artist - John Laws - Collection 6 [Disc 1]
DYEAR=2006
DGENRE=Country
TTITLE0=Kenny Chesney and Uncle Kracker - When The Sun Goes Down
TTITLE1=John Williamson - Chandelier Of Stars
TTITLE2=Brooks and Dunn - That's What It's All About
TTITLE3=Niel Diamond - Save Me A Saturday Night
TTITLE4=Graeme Connors (Duet with Felicity) - I Dream Of Highways
TTITLE5=Norah Jones Featuring Dolly Parton - Creepin' In
TTITLE6=Troy Cassar-Daley - Time Is A Friend Of Mine
TTITLE7=Alan Jackson Featuring Jimmy Buffett - It's Five O'Clock Somewhere
TTITLE8=Gretchen Wilson - I Don't Feel Like Loving You Today
TTITLE9=Tim McGraw - My Old Friend
TTITLE10=Sara Evans - Cheatin'
TTITLE11=Joe Nichols - Tequila Makes Her Clothes Fall Off
TTITLE12=Mary Chapin Carpenter - What Would You Say To Me
TTITLE13=Carly Simon - I Only Have Eyes For You
TTITLE14=Leanne Rimes - Nothin' 'Bout Love Makes Sense
TTITLE15=Los Lonley Boys - More Than Love
EXTD=
EXTT0=
EXTT1=
EXTT2=
EXTT3=
EXTT4=
EXTT5=
EXTT6=
EXTT7=
EXTT8=
EXTT9=
EXTT10=
EXTT11=
EXTT12=
EXTT13=
EXTT14=
EXTT15=
PLAYORDER=
